<?xml version="1.0" encoding="UTF-8" standalone="no"?>
<svg
   xmlns:dc="http://purl.org/dc/elements/1.1/"
   xmlns:cc="http://creativecommons.org/ns#"
   xmlns:rdf="http://www.w3.org/1999/02/22-rdf-syntax-ns#"
   xmlns:svg="http://www.w3.org/2000/svg"
   xmlns="http://www.w3.org/2000/svg"
   xmlns:sodipodi="http://sodipodi.sourceforge.net/DTD/sodipodi-0.dtd"
   xmlns:inkscape="http://www.inkscape.org/namespaces/inkscape"
   id="b5708c2f-4f88-4c73-bc81-55ebbc869fb7"
   data-name="Layer 1"
   width="362.88928"
   height="727.77802"
   viewBox="0 0 362.88928 727.77802"
   version="1.1"
   sodipodi:docname="undraw_modern_design_v3wv - edit.svg"
   inkscape:version="0.92.4 (5da689c313, 2019-01-14)">
  <metadata
     id="metadata67">
    <rdf:RDF>
      <cc:Work
         rdf:about="">
        <dc:format>image/svg+xml</dc:format>
        <dc:type
           rdf:resource="http://purl.org/dc/dcmitype/StillImage" />
      </cc:Work>
    </rdf:RDF>
  </metadata>
  <defs
     id="defs65" />
  <sodipodi:namedview
     pagecolor="#ffffff"
     bordercolor="#666666"
     borderopacity="1"
     objecttolerance="10"
     gridtolerance="10"
     guidetolerance="10"
     inkscape:pageopacity="0"
     inkscape:pageshadow="2"
     inkscape:window-width="1920"
     inkscape:window-height="1017"
     id="namedview63"
     showgrid="false"
     inkscape:zoom="0.90007214"
     inkscape:cx="585.35565"
     inkscape:cy="315.75618"
     inkscape:window-x="-8"
     inkscape:window-y="-8"
     inkscape:window-maximized="1"
     inkscape:current-layer="b5708c2f-4f88-4c73-bc81-55ebbc869fb7" />
  <title
     id="title2">modern_design</title>
  <path
     d="m 362.88927,172.94725 h -3.99878 V 63.40192 A 63.40185,63.40185 0 0 0 295.48844,0 H 63.402 A 63.40185,63.40185 0 0 0 0,63.40192 V 664.3761 a 63.40185,63.40185 0 0 0 63.402,63.40193 H 295.48844 A 63.40185,63.40185 0 0 0 358.89049,664.3761 V 250.9235 h 3.99878 z"
     id="path34"
     inkscape:connector-curvature="0"
     style="fill:#3f3d56" />
  <path
     d="m 298.04676,16.49498 h -30.295 A 22.49484,22.49484 0 0 1 246.92463,47.4855 H 113.96517 A 22.49484,22.49484 0 0 1 93.13803,16.49494 H 64.84246 A 47.3478,47.3478 0 0 0 17.49459,63.84268 v 600.09256 a 47.34781,47.34781 0 0 0 47.34787,47.34781 h 233.2043 a 47.34781,47.34781 0 0 0 47.34786,-47.34781 V 63.84272 A 47.3478,47.3478 0 0 0 298.04676,16.49498 Z"
     id="path36"
     inkscape:connector-curvature="0"
     style="fill:#ffffff" />
  <rect
     x="131.20699"
     y="177.70432"
     width="82.659828"
     height="7.6761599"
     id="rect38"
     style="fill:#6c63ff" />
  <rect
     x="131.20699"
     y="204.25859"
     width="144.06914"
     height="7.6761599"
     id="rect40"
     style="fill:#e6e6e6" />
  <rect
     x="131.20699"
     y="230.81287"
     width="143.92807"
     height="7.6761599"
     id="rect42"
     style="fill:#e6e6e6" />
  <rect
     x="52.667377"
     y="177.81828"
     width="61.409309"
     height="61.409309"
     id="rect44"
     style="fill:#6c63ff" />
  <rect
     x="131.20699"
     y="338.90375"
     width="82.659828"
     height="7.6761599"
     id="rect46"
     style="fill:#6c63ff" />
  <rect
     x="131.20699"
     y="365.45804"
     width="144.06914"
     height="7.6761599"
     id="rect48"
     style="fill:#e6e6e6" />
  <rect
     x="131.20699"
     y="392.0123"
     width="143.92807"
     height="7.6761599"
     id="rect50"
     style="fill:#e6e6e6" />
  <rect
     x="52.667377"
     y="339.01773"
     width="61.409309"
     height="61.409309"
     id="rect52"
     style="fill:#6c63ff" />
  <rect
     x="131.20699"
     y="500.10318"
     width="82.659828"
     height="7.6761599"
     id="rect54"
     style="fill:#6c63ff" />
  <rect
     x="131.20699"
     y="526.65747"
     width="144.06914"
     height="7.6761599"
     id="rect56"
     style="fill:#e6e6e6" />
  <rect
     x="131.20699"
     y="553.21173"
     width="143.92807"
     height="7.6761599"
     id="rect58"
     style="fill:#e6e6e6" />
  <rect
     x="52.667377"
     y="500.21716"
     width="61.409309"
     height="61.409309"
     id="rect60"
     style="fill:#6c63ff" />
</svg>
